# xmcd
#
# Track frame offsets: 
#        150
#        13125
#        33225
#        42450
#        57675
#        72525
#        81975
#        92850
#        105525
#        119850
#        129975
#        143400
#        151500
#        161926
#        169939
#        185825
#        198173
#        209534
#
# Disc length: 2940 seconds
#
# Revision: 2
# Processed by: cddbd v1.5.2PL0 Copyright (c) Steve Scherf et al.
# Submitted via: ExactAudioCopy v0.99pb3
#
DISCID=0c0b7a12
DTITLE=Shakin' Dudi - Zlota Plyta
DYEAR=2006
DGENRE=Blues Rock, Boogie, Neo Swing, Rock'n'Roll
TTITLE0=Au Szalalala
TTITLE1=Oh Ziuta!
TTITLE2=Za Dziesiec Trzynasta
TTITLE3=Zastanow Sie Co Robisz
TTITLE4=Stany Lekowe
TTITLE5=O Ogien Boj
TTITLE6=Pornografia
TTITLE7=Otworz Oczka
TTITLE8=To Ty Slodka
TTITLE9=Super Gwiazda
TTITLE10=Kaptur
TTITLE11=Opakowanie
TTITLE12=Codzienny Aerobic
TTITLE13=Opakowanie
TTITLE14=Stany Lekowe
TTITLE15=A Ona Smieje Sie
TTITLE16=Goscie Ida
TTITLE17=Au Szalalala
EXTD=
EXTT0=
EXTT1=
EXTT2=
EXTT3=
EXTT4=
EXTT5=
EXTT6=
EXTT7=
EXTT8=
EXTT9=
EXTT10=
EXTT11=
EXTT12=
EXTT13=
EXTT14=
EXTT15=
EXTT16=
EXTT17=
PLAYORDER=
